<?xml version="1.0" encoding="UTF-8"?>
<svg version="1.1" xmlns="http://www.w3.org/2000/svg" width="75" height="88">
<path d="M0 0 C2.75 0.5 2.75 0.5 4.75 2.5 C5.38086132 5.81202191 5.19055229 7.78794455 3.40625 10.671875 C1.90691638 12.66627161 0.36884329 14.60171353 -1.25 16.5 C-0.0846875 17.03882812 1.080625 17.57765625 2.28125 18.1328125 C6.75385165 20.37502947 10.45308996 23.14029337 14.25 26.375 C14.88164063 26.87902344 15.51328125 27.38304688 16.1640625 27.90234375 C20.62134571 31.67463322 20.62134571 31.67463322 21.2578125 35.7578125 C20.75 38.5 20.75 38.5 19.125 40.5 C16.75 41.5 16.75 41.5 13.9921875 40.87890625 C10.25726025 39.29043719 7.49919095 37.10135427 4.5 34.4375 C-0.37834836 30.19571661 -3.21994387 27.92060402 -9.828125 28.046875 C-14.50828897 28.92251858 -17.08399432 32.14809008 -20.25 35.5 C-21.23014371 36.45349837 -22.21202679 37.40521087 -23.1953125 38.35546875 C-24.21599203 39.38037807 -25.2342293 40.40772541 -26.25 41.4375 C-26.7435498 41.91477539 -27.23709961 42.39205078 -27.74560547 42.88378906 C-30.40930487 45.69552415 -31.59211605 47.83954349 -31.734375 51.64453125 C-31.26148348 55.40859518 -31.09227659 56.65772341 -28.5 59.25 C-27.87222656 59.89582031 -27.24445312 60.54164062 -26.59765625 61.20703125 C-25.82292969 61.96371094 -25.04820313 62.72039063 -24.25 63.5 C-23.22594343 64.54369137 -22.20394714 65.58940672 -21.18359375 66.63671875 C-14.97304487 73.65075828 -14.97304487 73.65075828 -6.625 77 C-1.77865667 76.95602229 0.56105389 74.63260037 3.94140625 71.390625 C5.45179335 69.81173222 6.91907494 68.19174947 8.375 66.5625 C10.75 64.5 10.75 64.5 13.875 63.9375 C16.75 64.5 16.75 64.5 18.6875 66.1875 C20.08030914 69.21890814 19.78272476 70.33785162 18.75 73.5 C12.9962611 80.62897351 6.27459071 87.67667987 -3.12890625 88.86328125 C-11.04366331 89.20998525 -16.65725142 87.57217391 -22.71337891 82.39355469 C-25.39155451 79.85942137 -27.98505963 77.26140764 -30.5625 74.625 C-31.45517578 73.73941406 -32.34785156 72.85382813 -33.26757812 71.94140625 C-39.2807558 65.86940893 -43.66361147 61.0446162 -43.75 52.125 C-43.79640625 50.53558594 -43.79640625 50.53558594 -43.84375 48.9140625 C-42.47787752 41.06029574 -36.69088373 35.4776765 -31.3125 29.9375 C-29.98144422 28.5432805 -28.65072342 27.14874112 -27.3203125 25.75390625 C-26.64645508 25.05152832 -25.97259766 24.34915039 -25.27832031 23.62548828 C-21.47461474 19.63956379 -17.73995416 15.58904608 -13.99438477 11.54858398 C-12.42080809 9.85809546 -10.83729066 8.17760805 -9.25 6.5 C-8.71552246 5.92475586 -8.18104492 5.34951172 -7.63037109 4.75683594 C-3.62291805 0.55737201 -3.62291805 0.55737201 0 0 Z " fill="#FFFEFE" transform="translate(43.25,-0.5)"/>
<path d="M0 0 C0.87430664 -0.00953201 1.74861328 -0.01906403 2.64941406 -0.02888489 C4.06818848 -0.02751778 4.06818848 -0.02751778 5.515625 -0.02612305 C6.48467773 -0.03040817 7.45373047 -0.0346933 8.45214844 -0.03910828 C10.50324725 -0.04485738 12.55436646 -0.04534758 14.60546875 -0.04101562 C17.75295572 -0.03785452 20.89950427 -0.06131173 24.046875 -0.08666992 C26.03645714 -0.08894264 28.02604182 -0.08964654 30.015625 -0.08862305 C30.96147461 -0.09783279 31.90732422 -0.10704254 32.88183594 -0.11653137 C33.75614258 -0.11030258 34.63044922 -0.10407379 35.53125 -0.09765625 C36.68802246 -0.09860039 36.68802246 -0.09860039 37.86816406 -0.0995636 C38.49432617 0.0239296 39.12048828 0.14742279 39.765625 0.2746582 C41.765625 3.2746582 41.765625 3.2746582 41.640625 6.3371582 C40.765625 9.2746582 40.765625 9.2746582 39.24389648 10.43945312 C35.61140956 11.66364166 32.02939835 11.57978638 28.23828125 11.57543945 C27.4123497 11.57972458 26.58641815 11.5840097 25.73545837 11.58842468 C23.99137284 11.59415886 22.24726339 11.59467496 20.50317383 11.59033203 C17.84089176 11.58717335 15.17972279 11.61063726 12.51757812 11.63598633 C10.8203139 11.63825962 9.12304669 11.63896268 7.42578125 11.63793945 C6.63293228 11.6471492 5.84008331 11.65635895 5.02320862 11.66584778 C0.49932882 11.62815107 -2.62023623 11.3112456 -6.234375 8.2746582 C-6.671875 5.2121582 -6.671875 5.2121582 -6.234375 2.2746582 C-3.8307917 -0.1289251 -3.28025071 0.01959772 0 0 Z " fill="#B2B2B2" transform="translate(33.234375,46.725341796875)"/>
<path d="M0 0 C2.875 0.5625 2.875 0.5625 4.8125 2.25 C6.20530914 5.28140814 5.90772476 6.40035162 4.875 9.5625 C-0.8787389 16.69147351 -7.60040929 23.73917987 -17.00390625 24.92578125 C-23.84699647 25.22554115 -28.31029673 24.14077894 -34.125 20.5625 C-34.125 20.2325 -34.125 19.9025 -34.125 19.5625 C-32.145 19.2325 -30.165 18.9025 -28.125 18.5625 C-27.795 16.2525 -27.465 13.9425 -27.125 11.5625 C-26.135 11.8925 -25.145 12.2225 -24.125 12.5625 C-18.7685491 13.30357439 -18.7685491 13.30357439 -14 11.17578125 C-10.93559294 8.50022887 -8.21069268 5.65839418 -5.5 2.625 C-3.125 0.5625 -3.125 0.5625 0 0 Z " fill="#FFA116" transform="translate(57.125,63.4375)"/>
<path d="M0 0 C5.58170045 1.57592786 9.647415 5.33777997 14.140625 8.88671875 C14.96175781 9.50546875 15.78289063 10.12421875 16.62890625 10.76171875 C21.93169195 14.98134218 21.93169195 14.98134218 22.890625 19.13671875 C22.140625 21.88671875 22.140625 21.88671875 20.515625 23.88671875 C18.140625 24.88671875 18.140625 24.88671875 15.3828125 24.265625 C11.64788525 22.67715594 8.88981595 20.48807302 5.890625 17.82421875 C1.18618314 13.73364918 -1.1011711 11.74999545 -7.484375 11.82421875 C-8.98871094 11.83775391 -8.98871094 11.83775391 -10.5234375 11.8515625 C-11.67972656 11.86896484 -11.67972656 11.86896484 -12.859375 11.88671875 C-10.78389179 8.5340151 -8.60872561 5.3981601 -5.984375 2.44921875 C-5.53320312 1.93488281 -5.08203125 1.42054687 -4.6171875 0.890625 C-2.859375 -0.11328125 -2.859375 -0.11328125 0 0 Z " fill="#FFA118" transform="translate(41.859375,16.11328125)"/>
</svg>
